            <svg id="Grupo_184" data-name="Grupo 184" xmlns="http://www.w3.org/2000/svg" xmlns:xlink="http://www.w3.org/1999/xlink" width="531.941" height="179.3" viewBox="0 0 531.941 179.3"> <defs> <clipPath id="clip-path"> <rect id="Retângulo_11" data-name="Retângulo 11" width="531.941" height="179.3" fill="#d7bfa5"/> </clipPath> </defs> <path id="Caminho_6" data-name="Caminho 6" d="M1213.784,240.367l9.787-49.074h8.268l-9.786,49.074Z" transform="translate(-854.194 -134.623)" fill="#d7bfa5"/> <g id="Grupo_2" data-name="Grupo 2" transform="translate(0 0)"> <g id="Grupo_1" data-name="Grupo 1" clip-path="url(#clip-path)"> <path id="Caminho_7" data-name="Caminho 7" d="M1299.64,272.409a16.65,16.65,0,0,1-7.839-1.849,14.046,14.046,0,0,1-5.62-5.324,16.131,16.131,0,0,1-2.084-8.434,22.135,22.135,0,0,1,1.488-8.2,19.845,19.845,0,0,1,4.2-6.581,18.8,18.8,0,0,1,6.347-4.332,20.053,20.053,0,0,1,7.8-1.52,16.7,16.7,0,0,1,7.672,1.62,11.068,11.068,0,0,1,4.864,4.826,16.031,16.031,0,0,1,1.553,7.971,29.253,29.253,0,0,1-2.348,11.475,17.5,17.5,0,0,1-6.316,7.638,17.223,17.223,0,0,1-9.722,2.71m2.118-7.073a11.71,11.71,0,0,0,6.247-1.687,11.948,11.948,0,0,0,4.332-4.663,14.359,14.359,0,0,0,1.588-6.879,8.63,8.63,0,0,0-2.446-6.481q-2.449-2.381-6.946-2.381a11.746,11.746,0,0,0-6.216,1.687,11.614,11.614,0,0,0-4.333,4.663,14.626,14.626,0,0,0-1.553,6.877,8.623,8.623,0,0,0,2.445,6.481,9.459,9.459,0,0,0,6.881,2.383m8.661,6.612,1.587-8.069,2.249-9.326,1.126-9.524,1.653-8.4h8.334l-7.078,35.318Z" transform="translate(-903.676 -166.204)" fill="#d7bfa5"/> <path id="Caminho_8" data-name="Caminho 8" d="M1445.655,272.409a31.929,31.929,0,0,1-8.6-1.122,19.51,19.51,0,0,1-6.281-2.779l3.505-6.281a16.658,16.658,0,0,0,5.455,2.479,25.877,25.877,0,0,0,6.846.892,12.559,12.559,0,0,0,6.016-1.123,3.356,3.356,0,0,0,1.988-2.977,2.388,2.388,0,0,0-1.392-2.249,14.1,14.1,0,0,0-3.571-1.19q-2.18-.461-4.629-.992a25.6,25.6,0,0,1-4.627-1.455,8.522,8.522,0,0,1-3.541-2.712,7.685,7.685,0,0,1-1.356-4.761,9.95,9.95,0,0,1,2.117-6.416,13.589,13.589,0,0,1,5.885-4.1,24.359,24.359,0,0,1,8.8-1.455,29.845,29.845,0,0,1,7.012.827,18.406,18.406,0,0,1,5.689,2.281l-3.11,6.416a14.2,14.2,0,0,0-5.024-2.118,25.641,25.641,0,0,0-5.359-.594q-4.036,0-5.95,1.222a3.5,3.5,0,0,0-1.919,2.945,2.531,2.531,0,0,0,1.353,2.314,12.578,12.578,0,0,0,3.506,1.29q2.151.5,4.629.992a23.147,23.147,0,0,1,4.632,1.422,9.391,9.391,0,0,1,3.571,2.645,7.166,7.166,0,0,1,1.423,4.7,9.967,9.967,0,0,1-2.184,6.514,13.212,13.212,0,0,1-6.02,4.036,26.559,26.559,0,0,1-8.861,1.353" transform="translate(-1006.899 -166.204)" fill="#d7bfa5"/> <path id="Caminho_9" data-name="Caminho 9" d="M1578.6,272.409a20.51,20.51,0,0,1-9.26-1.949,14.62,14.62,0,0,1-6.051-5.424,15.193,15.193,0,0,1-2.149-8.167,21.211,21.211,0,0,1,2.645-10.715,19.627,19.627,0,0,1,7.207-7.307,20.268,20.268,0,0,1,10.452-2.678,18.4,18.4,0,0,1,8.63,1.916,13.917,13.917,0,0,1,5.69,5.359,15.964,15.964,0,0,1,2.013,8.2,20.116,20.116,0,0,1-.165,2.647c-.107.838-.23,1.653-.361,2.447H1567.29l.927-5.489h25.133l-3.376,1.851a10.014,10.014,0,0,0-.461-5.62,7.088,7.088,0,0,0-3.176-3.44,10.769,10.769,0,0,0-5.224-1.19,11.058,11.058,0,0,0-10.452,6.481,16.409,16.409,0,0,0-1.454,7.142,8.71,8.71,0,0,0,2.48,6.647q2.478,2.347,7.7,2.349a16.419,16.419,0,0,0,5.689-.992,12.642,12.642,0,0,0,4.5-2.712l3.44,5.753a18.227,18.227,0,0,1-6.615,3.671,25.55,25.55,0,0,1-7.8,1.222" transform="translate(-1098.642 -166.204)" fill="#d7bfa5"/> <path id="Caminho_10" data-name="Caminho 10" d="M1702.9,271.948l7.011-35.318h7.869l-1.983,10.054-.726-2.91a13.634,13.634,0,0,1,6.247-5.92,22.513,22.513,0,0,1,9.16-1.686l-1.518,7.869c-.312-.042-.631-.075-.961-.1s-.7-.035-1.091-.035a12.394,12.394,0,0,0-8,2.547q-3.171,2.549-4.3,8.1l-3.437,17.394Z" transform="translate(-1198.404 -166.204)" fill="#d7bfa5"/> <path id="Caminho_11" data-name="Caminho 11" d="M13.133,175.9q17.92-39.011,33.821-78.912c2.818-7.073,5.566-14.175,8.522-21.189-.236.563-.476,1.122-.712,1.685C59.318,66.714,64.4,56.118,70.9,46.367c1.433-2.149,2.936-4.243,4.487-6.31.823-1.094-.874,1.114-.291.374.2-.248.39-.5.586-.748q.591-.744,1.2-1.484,1.269-1.553,2.6-3.059A100.5,100.5,0,0,1,90.868,24.076c.555-.461,1.122-.909,1.685-1.362,1.138-.913-1.354,1.016-.181.138.319-.236.634-.476.949-.712q1.842-1.364,3.751-2.637a49.094,49.094,0,0,1,8-4.46c-.563.24-1.126.476-1.685.712a26.32,26.32,0,0,1,6.338-1.775c-.622.087-1.248.169-1.874.252a17.375,17.375,0,0,1,4.094-.012c-.626-.083-1.252-.165-1.878-.252a13.761,13.761,0,0,1,3.192.882q-.839-.354-1.685-.708c.756.342,1.394.815,2.11,1.2-1.511-.823-.957-.772-.413-.264a11.052,11.052,0,0,1,.787.819c1,1.146-.87-1.338-.22-.287.169.272.354.535.516.811a17.356,17.356,0,0,1,.992,2.012c-.236-.563-.472-1.122-.713-1.685a32.6,32.6,0,0,1,1.9,7.924c-.083-.626-.169-1.252-.252-1.878a56.309,56.309,0,0,1-.039,14.671c.083-.626.165-1.252.252-1.878a62.9,62.9,0,0,1-4.381,15.793c.236-.559.472-1.122.712-1.685a69.979,69.979,0,0,1-4.991,9.573q-1.453,2.332-3.082,4.55c-.256.35-.52.7-.779,1.043-.748,1,.96-1.216.406-.523-.138.169-.272.342-.406.512Q103.1,65.945,102.189,67a78.448,78.448,0,0,1-8,8.015q-1.087.944-2.2,1.846c-.209.165-1.578,1.236-.488.4.933-.72.272-.212.039-.035-.272.209-.547.413-.819.614q-2.356,1.736-4.822,3.3a83.721,83.721,0,0,1-11.963,6.267q.839-.354,1.685-.713a105.79,105.79,0,0,1-12.277,4.224,106.284,106.284,0,0,1-13.21,3.224c.626-.083,1.252-.165,1.874-.252a14.989,14.989,0,0,1-3.8.067c.626.083,1.248.169,1.874.252a9.27,9.27,0,0,1-1.748-.457c.563.24,1.126.476,1.685.713-.221-.094-.429-.2-.65-.3-1.078-.484,1.079,1,.622.547-.819-.819.968,1.645.366.386.236.563.473,1.122.709,1.685a4.249,4.249,0,0,1-.244-.874c.083.626.165,1.248.252,1.874a4.693,4.693,0,0,1,.008-1.126c-.083.622-.165,1.248-.252,1.874a4.92,4.92,0,0,1,.248-.854c-.236.559-.476,1.122-.712,1.685.338-.724.968-1.039-.52.516.685-.712-1.815,1.1-.563.484l-1.685.709a3.649,3.649,0,0,1,.642-.185c-.622.083-1.248.169-1.874.252a4.1,4.1,0,0,1,.728-.012c-.626-.087-1.252-.169-1.874-.252l.26.035q-1.559-.9-3.114-1.815c.669.815-1.228-1.689-.685-.89.11.161.224.319.334.48.228.346.441.7.642,1.067a26.156,26.156,0,0,1,1.216,2.527c-.236-.563-.473-1.126-.713-1.685,2.409,5.72,3.826,11.848,5.546,17.8a153.615,153.615,0,0,0,8.55,23.492c3.681,7.739,8.664,15.179,15.186,20.811a41.881,41.881,0,0,0,13.75,8.365,24.742,24.742,0,0,0,15.379-.036c12.943-4.29,22.028-16.147,29.641-26.8a7.051,7.051,0,0,0-2.531-9.652c-3.641-1.925-7.357-.685-9.652,2.531q-1.411,1.972-2.87,3.909c-.291.386-1.248,1.425.059-.063-.232.264-.437.559-.657.835-.476.6-.957,1.2-1.441,1.795-1.8,2.193-3.685,4.322-5.692,6.326q-1.364,1.364-2.807,2.637c-.484.425-.98.842-1.48,1.248-.9.728.177-.177.484-.358-.279.165-.551.417-.811.606a31.235,31.235,0,0,1-6.018,3.468c.563-.236,1.126-.473,1.685-.713a21.344,21.344,0,0,1-5.294,1.468c.626-.083,1.252-.165,1.878-.252a18.422,18.422,0,0,1-4.539,0c.622.087,1.248.169,1.874.252a19.938,19.938,0,0,1-4.913-1.362q.844.354,1.689.712a35.364,35.364,0,0,1-6.849-4.117c-1-.732.854.7.52.406-.252-.22-.52-.417-.776-.63-.472-.394-.941-.8-1.4-1.208q-1.411-1.281-2.72-2.669-1.246-1.328-2.4-2.747c-.209-.256-.405-.516-.614-.768-.283-.35,1.149,1.523.425.535-.39-.523-.775-1.051-1.149-1.586a65.3,65.3,0,0,1-3.881-6.322c-1.33-2.456-2.516-4.984-3.6-7.554.236.563.473,1.122.709,1.685-3.456-8.227-5.779-16.836-8.239-25.393a96.761,96.761,0,0,0-3.208-9.849,39,39,0,0,0-2.366-5.129,15.779,15.779,0,0,0-.953-1.429c-1.224-1.634-2.346-2.921-4.448-3.527a9.819,9.819,0,0,0-4.964.016A10.258,10.258,0,0,0,36.94,97.674a10.985,10.985,0,0,0,9.384,10.144c4.511.74,8.8-.209,13.171-1.291,3.7-.921,7.384-1.886,11.022-3.019a92.739,92.739,0,0,0,34.538-19.292A81.335,81.335,0,0,0,125.9,54.7a64.941,64.941,0,0,0,4.176-34.234c-1-6.928-3.629-13.588-9.687-17.592C113-2.018,103.574.076,96.162,3.662c-6.424,3.11-12.333,7.77-17.654,12.466A106.4,106.4,0,0,0,64.995,30.6C55.925,42.27,49.068,55.189,43.266,68.75c-6.243,14.592-11.829,29.459-17.895,44.122q-2.2,5.332-4.444,10.64c.236-.563.473-1.122.712-1.685Q11.661,145.463.95,168.78a7.612,7.612,0,0,0-.712,5.436,7.184,7.184,0,0,0,3.243,4.216c3.1,1.641,8.007,1.051,9.652-2.531" transform="translate(-0.001 -0.002)" fill="#d7bfa5"/> <path id="Caminho_12" data-name="Caminho 12" d="M401.207,309.278c15.108-19.449,28.519-40.111,42.678-60.242,1.559-2.212,3.106-4.428,4.739-6.585.988-1.307-.866,1.079-.189.236.236-.292.464-.587.7-.878.441-.543.893-1.087,1.386-1.59.11-.114.437-.323.488-.469.008-.023-1.378,1.027-1.173.905.311-.185.531-.252-.634.236-.256.11-.512.216-.768.327a5.111,5.111,0,0,1-5.094-.783c-.142-.11-.284-.216-.425-.323q.555.62-.047-.091c-.724-.579-.193-.209.02.185.177.327.323.665.488,1,.693,1.4-.724-1.878-.2-.465.106.291.22.579.327.866.252.7.48,1.409.7,2.121.441,1.472.823,2.96,1.169,4.456.811,3.523,1.437,7.089,2,10.663.311,1.988.6,3.976.874,5.968.035.248.067.5.1.744.158,1.145-.095-.7-.1-.752.063.5.134,1,.2,1.508q.224,1.712.437,3.433c.535,4.251,1.039,8.51,1.563,12.766,1.024,8.333,2.012,16.71,3.7,24.941,1.736,8.455,5.121,21.685,15.718,21.93,5.1.122,9.329-3.374,12.793-6.755,2.074-2.023,4.043-4.157,6.027-6.267a212.983,212.983,0,0,1,16.883-16.529q1.181-1,2.385-1.976c.4-.323.811-.642,1.217-.964.689-.547-1.213.917-.508.394.26-.193.515-.394.775-.587,1.76-1.311,3.566-2.559,5.424-3.728,1.724-1.083,3.5-2.094,5.318-3.007.9-.453,1.838-.819,2.728-1.279-1.944,1.008-.52.22.043,0s1.158-.441,1.744-.642a39.952,39.952,0,0,1,5.849-1.539c.272-.051,2.1-.323.681-.13s.417-.031.689-.055c.9-.075,1.8-.11,2.7-.13a63.181,63.181,0,0,1,8.235.354c.311.035.622.075.937.11.85.1-2.165-.323-.724-.091.673.106,1.35.212,2.023.339q1.789.336,3.554.8a56.15,56.15,0,0,1,6.57,2.2c1.146.457-1.866-.823-.748-.311.248.11.5.216.74.331q.785.354,1.551.732,1.518.75,2.992,1.59c1.885,1.075,3.708,2.252,5.479,3.5.882.622,1.744,1.272,2.606,1.921.96.724-1.594-1.252-.649-.5.2.165.413.323.618.488q.656.52,1.3,1.047c1.708,1.4,3.377,2.846,5.035,4.31,7.176,6.349,14.147,12.942,22.107,18.331a76.147,76.147,0,0,0,30.483,12.187c16.269,2.614,32.73.874,48.736-2.657,4.956-1.094,9.872-2.377,14.749-3.787,3.543-1.024,6.113-5.023,4.928-8.68a7.174,7.174,0,0,0-8.68-4.928,236.332,236.332,0,0,1-28.719,6.306c.055-.008,1.889-.244.736-.1-.248.031-.5.067-.752.1-.492.059-.988.118-1.488.173-1.027.118-2.059.22-3.09.315q-2.87.254-5.747.382a101.924,101.924,0,0,1-10.522-.075c-1.657-.1-3.306-.244-4.956-.441-.374-.043-.752-.075-1.122-.142-.091-.016,2.071.3,1.043.138-.181-.027-.366-.051-.547-.079q-1.152-.171-2.295-.378a71.543,71.543,0,0,1-8.389-2.035q-1.913-.59-3.786-1.287c-.591-.221-1.177-.449-1.764-.689-1.382-.559.937.409.61.264s-.638-.271-.953-.413a70.9,70.9,0,0,1-6.692-3.421c-2.078-1.2-4.1-2.515-6.062-3.9-.945-.669-1.874-1.358-2.8-2.055-1.134-.858.925.724.6.468-.216-.173-.437-.342-.654-.516-.461-.362-.921-.732-1.378-1.1-3.5-2.846-6.849-5.873-10.2-8.892-6.9-6.215-13.982-12.522-22.236-16.895a62.322,62.322,0,0,0-32.113-7.074c-18.5.874-34.006,13.529-46.555,26.035-4.724,4.708-9.112,9.75-13.876,14.415-.756.74-1.543,1.437-2.338,2.134-.716.63,1.035-.673-.071.039-.279.181-.594.362-.866.559-.937.677.039.024.346-.071-1.177.358.3.051.5.039-1.244.067.414.059.6.11,1.669.441,1.2.606.717.287-1.035-.677,1.067,1.212.26.189a4.556,4.556,0,0,0-.531-.583c.15.11.921,1.409.362.425-.287-.512-.606-1-.878-1.519s-.488-1.106-.771-1.638c.075.138.61,1.559.2.429-.063-.173-.13-.342-.193-.515-.468-1.268-.854-2.563-1.2-3.87-.874-3.271-1.508-6.609-2.075-9.951-.319-1.889-.61-3.787-.885-5.684-.142-.964-.276-1.929-.409-2.893-.248-1.823.161,1.224,0,.031-.083-.622-.165-1.244-.244-1.87-1.157-8.923-2.153-17.871-3.373-26.787-.984-7.188-1.988-14.5-4.09-21.461-1.488-4.917-3.712-10.959-9.254-12.372-5.605-1.433-8.943,3.563-11.84,7.361-5.062,6.636-9.723,13.612-14.442,20.492-6.94,10.1-13.793,20.268-20.938,30.223q-2.609,3.637-5.271,7.227c-.893,1.2-1.787,2.4-2.692,3.586q-.679.9-1.358,1.787c-.229.3-.457.595-.685.89-.693.905,1.019-1.315-.1.13a7.722,7.722,0,0,0-2.067,4.991,7.177,7.177,0,0,0,2.067,4.987c2.527,2.319,7.562,3.114,9.979,0" transform="translate(-273.87 -159.999)" fill="#d7bfa5"/> <path id="Caminho_13" data-name="Caminho 13" d="M595.929,108.346c3.692,0,7.227-3.243,7.054-7.054a7.175,7.175,0,0,0-7.054-7.058c-3.692,0-7.227,3.248-7.054,7.058a7.175,7.175,0,0,0,7.054,7.054" transform="translate(-414.413 -66.318)" fill="#d7bfa5"/> <path id="Caminho_14" data-name="Caminho 14" d="M810.171,66.451a42.438,42.438,0,1,0,42.438,42.438,42.484,42.484,0,0,0-42.438-42.438m29.192,42.438A29.192,29.192,0,1,1,810.171,79.7a29.226,29.226,0,0,1,29.192,29.192" transform="translate(-540.288 -46.766)" fill="#d7bfa5"/> </g> </g> </svg>
